<?xml version="1.0" encoding="utf-8"?>
<!-- Generator: Adobe Illustrator 16.0.3, SVG Export Plug-In . SVG Version: 6.00 Build 0)  -->
<!DOCTYPE svg PUBLIC "-//W3C//DTD SVG 1.1//EN" "http://www.w3.org/Graphics/SVG/1.1/DTD/svg11.dtd">
<svg version="1.1" xmlns="http://www.w3.org/2000/svg" xmlns:xlink="http://www.w3.org/1999/xlink" x="0px" y="0px" width="512px"
	 height="512px" viewBox="0 0 512 512" enable-background="new 0 0 512 512" xml:space="preserve">
<g id="Base" display="none">
</g>
<g id="Layer_1">
	<path d="M256,32C132.3,32,32,132.3,32,256c0,123.7,100.3,224,224,224c123.7,0,224-100.3,224-224C480,132.3,379.7,32,256,32
		 M473.6,256c0,53.2-19.1,101.9-50.8,139.7c7.9-9.7,15.3-20.5,21.9-32.2c21-36.6,23.5-77.3,10.8-106.7c1.9-11.1,2.8-22.5,2.5-34.2
		c-1.7-56.6-36.3-113-81.9-148.2C434.8,113.5,473.6,180.2,473.6,256 M263.3,45c73.1-1,137.1,43.4,166.4,105.1
		c11.2,23.6,17.5,50.3,17.6,77.1c0,4.8-0.2,9.6-0.6,14.3c-8.4-11.2-19.9-19.5-34.1-23.2c-9.7-2.6-19.8-2.8-30.1-1.1
		c-35.6-44.2-94-73.1-155.4-73.1c-64.7,0-120,30.4-149.6,78.3C79,126.7,154.7,46.5,263.3,45 M271.4,404.9c-2.9,0.1-5.8,0.2-8.7,0.2
		c-93.9,0-173.1-71.9-184-159.7c24.8-46.4,78-73.6,140-73.6c44.4,0,94.7,22.5,130.7,56.9c-31.9,17.3-60.8,50.1-74.9,85.5
		C261.1,348.5,260,381,271.4,404.9 M289.2,330c14-34.8,46.4-66.4,80.3-78.8C387,274.3,398,301,398,328.9c0,7.5-0.5,14.8-1.5,21.8
		c-29.3,29.4-69.1,48.8-113.3,53.4C275.5,384.1,277.9,358.1,289.2,330 M394.2,362.9c-7.5,32.8-26,59.3-51.1,77.8
		c-6.6,0.2-13.2-0.5-19.7-2.3c-18-5-30.3-14.8-37.3-28C327.2,405.3,364.7,388.2,394.2,362.9 M415.2,341.8
		c16.2-18.9,28.4-40.9,35.6-64.8c12.1,24.5,9,59.8-10.3,92.8c-19.7,33.7-49.5,60.3-80.4,68.4C388.5,414.6,408.5,381.1,415.2,341.8
		 M401.2,245.7c4.7,0.2,9.3,0.8,13.8,2c11.8,3.1,21.3,9.3,28.3,17.6c-4.8,22.1-13.8,42.5-26.1,60.5c0.3-4.3,0.5-8.7,0.5-13.1
		C417.7,288.8,411.7,266.2,401.2,245.7 M260.3,412c4.9,0,9.8-0.2,14.6-0.6c8.8,14.3,22.6,24.8,41.6,29.8c7.4,2,14.7,2.8,21.8,2.8
		c-25.9,17.5-58.2,27.1-92.6,27.1C146,471.1,64.8,387.8,64,308.6c-0.2-14.4,1.8-27.8,5.5-40.3C91.5,350.2,168.4,412,260.3,412
		 M355.1,442.2c16.9-3.6,32.8-12.5,47.3-25.2c-27.3,24.8-60.9,42.7-98,51.1C322.9,462.5,340,453.7,355.1,442.2 M169.6,56.3
		C106.8,87.5,63.1,161.7,63.1,220.3c0,9.1,0.7,18.1,2,26.9c-6.8,17.7-10.6,37.1-10.6,57.7c0,30.3,10.9,58.9,29.1,83.8
		C55.3,352,38.4,306,38.4,256C38.4,166.5,92.4,89.7,169.6,56.3"/>
</g>
<g id="gUIDES">
</g>
</svg>
