<?xml version="1.0" encoding="utf-8"?>
<!-- Generator: Adobe Illustrator 16.0.3, SVG Export Plug-In . SVG Version: 6.00 Build 0)  -->
<!DOCTYPE svg PUBLIC "-//W3C//DTD SVG 1.1//EN" "http://www.w3.org/Graphics/SVG/1.1/DTD/svg11.dtd">
<svg version="1.1" xmlns="http://www.w3.org/2000/svg" xmlns:xlink="http://www.w3.org/1999/xlink" x="0px" y="0px" width="512px"
	 height="512px" viewBox="0 0 512 512" enable-background="new 0 0 512 512" xml:space="preserve">
<g id="Base" display="none">
	<rect display="inline" fill-rule="evenodd" clip-rule="evenodd" fill="#00FF00" width="512" height="512"/>
</g>
<g id="Layer_1">
	<g>
		<g>
			<path fill="#444444" d="M284.8,479.3c-9.1-1.6-18.5-3-28.2-3c-9.4,0-18.8,1.3-28.2,3l3.5-189.8C182,203.3,135,115.6,80,32.6
				c9.4,2.4,19.1,4,29,4s20.1-1.9,29.8-4c37.6,66.6,78.4,131.2,117.8,196.7c39.7-65,81.9-129.6,117.8-196.7
				c9.4,2.4,19.1,3.8,28.7,3.8c10.2,0,20.7-1.3,30.6-3.8c-21.5,29.5-39.2,61.7-57.7,93.1c-31.9,54.5-63.3,109-94.7,163.7
				L284.8,479.3z"/>
		</g>
		<g>
			<path d="M284.8,479.3c-9.1-1.6-18.5-3-28.2-3c-9.4,0-18.8,1.3-28.2,3l3.5-189.8C182,203.3,135,115.6,80,32.6c9.4,2.4,19.1,4,29,4
				s20.1-1.9,29.8-4c37.6,66.6,78.4,131.2,117.8,196.7c39.7-65,81.9-129.6,117.8-196.7c9.4,2.4,19.1,3.8,28.7,3.8
				c10.2,0,20.7-1.3,30.6-3.8c-21.5,29.5-39.2,61.7-57.7,93.1c-31.9,54.5-63.3,109-94.7,163.7L284.8,479.3z"/>
		</g>
	</g>
</g>
<g id="gUIDES">
</g>
</svg>
