<?xml version="1.0" encoding="utf-8"?>
<!-- Generator: Adobe Illustrator 16.0.3, SVG Export Plug-In . SVG Version: 6.00 Build 0)  -->
<!DOCTYPE svg PUBLIC "-//W3C//DTD SVG 1.1//EN" "http://www.w3.org/Graphics/SVG/1.1/DTD/svg11.dtd">
<svg version="1.1" xmlns="http://www.w3.org/2000/svg" xmlns:xlink="http://www.w3.org/1999/xlink" x="0px" y="0px" width="512px"
	 height="512px" viewBox="0 0 512 512" enable-background="new 0 0 512 512" xml:space="preserve">
<g id="Base" display="none">
	<rect display="inline" fill-rule="evenodd" clip-rule="evenodd" fill="#00FF00" width="512" height="512"/>
</g>
<g id="Layer_1">
	<g>
		<g>
			<path fill="#444444" d="M170.6,35.6H286v2c0,13-23.1,15-39.1,18.1c-5,0-16.1,1-19.1,3c29.1,15,34.1,40.1,34.1,76.2
				c0,42.1-16.1,64.2-34.1,79.3c-10,10-19.1,17.1-19.1,27.1c0,10,12,20.1,25.1,32.1c22.1,19.1,52.2,45.1,52.2,89.3
				c0,46.1-20.1,79.3-58.2,97.3c-30.1,15-62.2,17.1-75.2,17.1c-2,0-3-1-4-1c0,0-1,1-2,1c-19.1,0-116.4-5-116.4-93.3
				c0-86.3,105.3-93.3,137.4-93.3h1c-18.1-25.1-15-50.2-15-50.2c-1,0-4,0-7,0c-12,0-35.1-2-55.2-15c-25.1-15-37.1-42.1-37.1-80.3
				C54.2,39.6,169.6,35.6,170.6,35.6z M166.6,313.5c-2,0-5,0-8,0c-22.1,1-42.1,10-57.2,23.1c-14,13-22.1,30.1-21.1,47.1
				c3,35.1,40.1,55.2,86.3,52.2c45.1-3,76.2-29.1,73.2-64.2C237.8,337.6,209.7,313.5,166.6,313.5z M148.5,66.7c-3,0-6,0-10,1
				c-13,4-23.1,15-29.1,31.1c-5,16.1-6,33.1-1,53.2c9,34.1,34.1,59.2,59.2,59.2c3,0,6,0,9-1c28.1-8,45.1-49.2,33.1-89.3
				C197.7,78.8,178.6,66.7,148.5,66.7z M479.6,208.2v47.1h-75.2v75.2h-47.1v-75.2H282v-47.1h75.2v-75.2h47.1v75.2H479.6z"/>
		</g>
		<g>
			<path d="M170.6,35.6H286v2c0,13-23.1,15-39.1,18.1c-5,0-16.1,1-19.1,3c29.1,15,34.1,40.1,34.1,76.2c0,42.1-16.1,64.2-34.1,79.3
				c-10,10-19.1,17.1-19.1,27.1c0,10,12,20.1,25.1,32.1c22.1,19.1,52.2,45.1,52.2,89.3c0,46.1-20.1,79.3-58.2,97.3
				c-30.1,15-62.2,17.1-75.2,17.1c-2,0-3-1-4-1c0,0-1,1-2,1c-19.1,0-116.4-5-116.4-93.3c0-86.3,105.3-93.3,137.4-93.3h1
				c-18.1-25.1-15-50.2-15-50.2c-1,0-4,0-7,0c-12,0-35.1-2-55.2-15c-25.1-15-37.1-42.1-37.1-80.3C54.2,39.6,169.6,35.6,170.6,35.6z
				 M166.6,313.5c-2,0-5,0-8,0c-22.1,1-42.1,10-57.2,23.1c-14,13-22.1,30.1-21.1,47.1c3,35.1,40.1,55.2,86.3,52.2
				c45.1-3,76.2-29.1,73.2-64.2C237.8,337.6,209.7,313.5,166.6,313.5z M148.5,66.7c-3,0-6,0-10,1c-13,4-23.1,15-29.1,31.1
				c-5,16.1-6,33.1-1,53.2c9,34.1,34.1,59.2,59.2,59.2c3,0,6,0,9-1c28.1-8,45.1-49.2,33.1-89.3C197.7,78.8,178.6,66.7,148.5,66.7z
				 M479.6,208.2v47.1h-75.2v75.2h-47.1v-75.2H282v-47.1h75.2v-75.2h47.1v75.2H479.6z"/>
		</g>
	</g>
</g>
<g id="gUIDES">
</g>
</svg>
