<?xml version="1.0" encoding="utf-8"?>
<!-- Generator: Adobe Illustrator 17.1.0, SVG Export Plug-In . SVG Version: 6.00 Build 0)  -->
<!DOCTYPE svg PUBLIC "-//W3C//DTD SVG 1.1//EN" "http://www.w3.org/Graphics/SVG/1.1/DTD/svg11.dtd">
<svg version="1.1" xmlns="http://www.w3.org/2000/svg" xmlns:xlink="http://www.w3.org/1999/xlink" x="0px" y="0px"
	 viewBox="0 0 512 512" enable-background="new 0 0 512 512" xml:space="preserve">
<g id="Base" display="none">
</g>
<g id="Layer_1">
	<linearGradient id="SVGID_2_" gradientUnits="userSpaceOnUse" x1="52.9422" y1="334.2812" x2="476.6183" y2="171.7812">
		<stop  offset="0" style="stop-color:#11185B"/>
		<stop  offset="1" style="stop-color:#00299B"/>
	</linearGradient>
	<path fill="url(#SVGID_2_)" d="M194.4,176.2l-67,159.9H83.6l-33-127.6c-2-7.9-3.7-10.7-9.8-14.1C30.9,189.1,14.4,184,0,180.9l1-4.6
		h70.4c9,0,17,6,19.1,16.3l17.4,92.5l43.1-108.9H194.4z M365.8,284c0.2-42.2-58.4-44.5-58-63.4c0.1-5.7,5.6-11.8,17.5-13.4
		c5.9-0.8,22.3-1.4,40.8,7.2l7.3-33.9c-10-3.6-22.8-7.1-38.7-7.1c-40.9,0-69.7,21.7-69.9,52.9c-0.3,23,20.5,35.9,36.2,43.5
		c16.1,7.8,21.5,12.9,21.5,19.9c-0.1,10.7-12.9,15.5-24.8,15.7c-20.8,0.3-32.9-5.6-42.5-10.1l-7.5,35c9.7,4.4,27.5,8.3,46,8.5
		C337.2,338.7,365.6,317.2,365.8,284 M473.7,336.2H512l-33.4-159.9h-35.3c-7.9,0-14.6,4.6-17.6,11.7l-62.1,148.2H407l8.6-23.9h53.1
		L473.7,336.2z M427.6,279.5l21.8-60l12.5,60H427.6z M253.5,176.2l-34.2,159.9h-41.4l34.2-159.9H253.5z"/>
</g>
<g id="gUIDES">
</g>
</svg>
