<?xml version="1.0" encoding="utf-8"?>
<!-- Generator: Adobe Illustrator 17.1.0, SVG Export Plug-In . SVG Version: 6.00 Build 0)  -->
<!DOCTYPE svg PUBLIC "-//W3C//DTD SVG 1.1//EN" "http://www.w3.org/Graphics/SVG/1.1/DTD/svg11.dtd">
<svg version="1.1" xmlns="http://www.w3.org/2000/svg" xmlns:xlink="http://www.w3.org/1999/xlink" x="0px" y="0px"
	 viewBox="0 0 512 512" enable-background="new 0 0 512 512" xml:space="preserve">
<g id="Base" display="none">
</g>
<g id="Layer_1">
	<g>
		<path fill-rule="evenodd" clip-rule="evenodd" d="M0,128h32v256H0V128z"/>
		<path fill-rule="evenodd" clip-rule="evenodd" d="M64,128h32v160H64V128z"/>
		<path fill-rule="evenodd" clip-rule="evenodd" d="M192,128h32v160h-32V128z"/>
		<path fill-rule="evenodd" clip-rule="evenodd" d="M320,128h32v160h-32V128z"/>
		<path fill-rule="evenodd" clip-rule="evenodd" d="M416,128h32v160h-32V128z"/>
		<path fill-rule="evenodd" clip-rule="evenodd" d="M456,128h8v256h-8V128z"/>
		<path fill-rule="evenodd" clip-rule="evenodd" d="M480,128h32v256h-32V128z"/>
		<path d="M64,320h26.7c5.3,0,9.2,0.2,11.8,0.6c2.6,0.4,4.9,1.3,7,2.6c2.1,1.3,3.8,3.1,5.1,5.3c1.4,2.2,2.1,4.7,2.1,7.5
			c0,3-0.8,5.7-2.5,8.3c-1.7,2.5-4,4.4-6.9,5.6c4.1,1.1,7.2,3.1,9.4,5.8c2.2,2.7,3.3,6,3.3,9.6c0,2.9-0.7,5.7-2.1,8.5
			s-3.3,4.9-5.8,6.6c-2.4,1.6-5.5,2.7-9.1,3c-2.3,0.2-7.7,0.4-16.3,0.4H64V320z M77.5,330.7v14.8h8.8c5.3,0,8.5-0.1,9.8-0.2
			c2.3-0.3,4.1-1,5.4-2.3c1.3-1.3,2-2.9,2-5c0-2-0.6-3.6-1.7-4.8c-1.1-1.2-2.8-2-5.1-2.2c-1.3-0.1-5.2-0.2-11.5-0.2H77.5z
			 M77.5,356.1v17.1H90c4.9,0,7.9-0.1,9.3-0.4c2-0.3,3.6-1.2,4.9-2.6c1.3-1.4,1.9-3.2,1.9-5.4c0-1.9-0.5-3.5-1.5-4.9
			c-1-1.3-2.4-2.3-4.2-2.9c-1.8-0.6-5.8-0.9-12-0.9H77.5z"/>
		<path d="M128,352.4c0-6.3,1-11.6,3-15.9c1.5-3.2,3.5-6,6.1-8.5c2.6-2.5,5.4-4.4,8.5-5.6c4.1-1.6,8.9-2.4,14.2-2.4
			c9.7,0,17.5,2.8,23.3,8.5c5.8,5.7,8.8,13.5,8.8,23.6c0,10-2.9,17.8-8.7,23.5c-5.8,5.6-13.5,8.5-23.2,8.5c-9.8,0-17.6-2.8-23.4-8.4
			C130.9,370,128,362.2,128,352.4z M141.7,352c0,7,1.7,12.3,5.2,15.9c3.4,3.6,7.8,5.4,13.1,5.4s9.7-1.8,13.1-5.4
			c3.4-3.6,5.1-9,5.1-16.1c0-7.1-1.7-12.4-5-15.9c-3.3-3.5-7.7-5.2-13.2-5.2c-5.5,0-9.9,1.8-13.3,5.3
			C143.4,339.5,141.7,344.8,141.7,352z"/>
		<path d="M208,384v-64h13.8v53.1H256V384H208z"/>
		<path d="M266,384v-64h50.7v10.8h-36.9V345h34.3v10.8h-34.3v17.4H318V384H266z"/>
		<path d="M344.2,384v-53.2H324V320h54v10.8h-20.1V384H344.2z"/>
		<path d="M384,352.4c0-6.3,1-11.6,3-15.9c1.5-3.2,3.5-6,6.1-8.5c2.6-2.5,5.4-4.4,8.5-5.6c4.1-1.6,8.9-2.4,14.2-2.4
			c9.7,0,17.5,2.8,23.3,8.5c5.8,5.7,8.8,13.5,8.8,23.6c0,10-2.9,17.8-8.7,23.5c-5.8,5.6-13.5,8.5-23.2,8.5c-9.8,0-17.6-2.8-23.4-8.4
			C386.9,370,384,362.2,384,352.4z M397.7,352c0,7,1.7,12.3,5.2,15.9c3.4,3.6,7.8,5.4,13.1,5.4c5.3,0,9.7-1.8,13.1-5.4
			c3.4-3.6,5.1-9,5.1-16.1c0-7.1-1.7-12.4-5-15.9c-3.3-3.5-7.7-5.2-13.2-5.2c-5.5,0-9.9,1.8-13.3,5.3
			C399.4,339.5,397.7,344.8,397.7,352z"/>
		<path fill-rule="evenodd" clip-rule="evenodd" d="M104,128h8v160h-8V128z"/>
		<path fill-rule="evenodd" clip-rule="evenodd" d="M128,128h32v160h-32V128z"/>
		<path fill-rule="evenodd" clip-rule="evenodd" d="M240,128h8v160h-8V128z"/>
		<path fill-rule="evenodd" clip-rule="evenodd" d="M376,128h8v160h-8V128z"/>
		<path fill-rule="evenodd" clip-rule="evenodd" d="M48,128h8v256h-8V128z"/>
		<path fill-rule="evenodd" clip-rule="evenodd" d="M256,128h32v160h-32V128z"/>
	</g>
</g>
<g id="gUIDES">
</g>
</svg>
