<?xml version="1.0" encoding="utf-8"?>
<!-- Generator: Adobe Illustrator 17.1.0, SVG Export Plug-In . SVG Version: 6.00 Build 0)  -->
<!DOCTYPE svg PUBLIC "-//W3C//DTD SVG 1.1//EN" "http://www.w3.org/Graphics/SVG/1.1/DTD/svg11.dtd">
<svg version="1.1" xmlns="http://www.w3.org/2000/svg" xmlns:xlink="http://www.w3.org/1999/xlink" x="0px" y="0px"
	 viewBox="0 0 512 512" enable-background="new 0 0 512 512" xml:space="preserve">
<g id="Base" display="none">
</g>
<g id="Layer_1">
	<g>
		<rect x="91.8" y="96" fill="#FFFFFF" width="327.1" height="320"/>
		
			<radialGradient id="SVGID_2_" cx="-55.9556" cy="-141.6208" r="394.53" gradientTransform="matrix(0.999 0 0 0.999 192.5087 282.4341)" gradientUnits="userSpaceOnUse">
			<stop  offset="0" style="stop-color:#00B7E8"/>
			<stop  offset="0.427" style="stop-color:#009ACA"/>
			<stop  offset="0.5191" style="stop-color:#008FBC"/>
			<stop  offset="0.8385" style="stop-color:#006D8F"/>
			<stop  offset="1" style="stop-color:#00607E"/>
		</radialGradient>
		<path fill="url(#SVGID_2_)" d="M407.1,332.7c0,0-0.6,0-1.2-0.1l-25.6,0v-1.8c-2.9,1.2-6,1.8-9,1.8c0,0-0.6,0-1.2-0.1l-15.2,0v0.1
			h-36.7v0.1h-24.9v-7.5c0,0,0-5.3,0-6.4c-0.2,0-1.1,0-1.7,0c0,3.2,0,13.9,0,13.9h-25.2v-15c-4.1,1.7-8.9,2.1-13.4,2.1
			c0,0-1.5,0-2.4,0c0,2.6,0,12.9,0,12.9h-29.8c0,0-4.8-5.3-7.5-8.2c-2.6,2.9-7.5,8.2-7.5,8.2h-48.6v-55.1H205c0,0,5.3,5.8,8.4,9.1
			c3.1-3.3,8.4-9.1,8.4-9.1h3.3l7.8-0.1h24.4c1.4-0.1,5.1-0.1,9.1,1.4v-1.2h31.9c1.6-0.1,5.6-0.2,9.8,1.6v-1.6h39.2h7.5v1.6
			c4.4-1.8,8.5-1.7,9.1-1.6l26.6,0v1.7c4.5-1.8,8.6-1.7,9.2-1.7l19.1,0V96H91.8v140.4l11.2-26.6h24.3c0,0,2.8,6.7,2.9,6.9
			c0-1,0-6.9,0-6.9h28.4c0,0,4.3,9.5,6.3,14c2-4.5,6.2-14,6.2-14h19h1.9h7.5h27.5h2.2h7.5H259c1.6-0.1,5.6-0.2,9.8,1.6v-1.6h17.7
			h7.5v3.3c3.7-2.3,7.9-3.5,12.2-3.7c0,0,13.6,0.4,14.1,0.4l0,0h24.2c0,0,2.6,6.3,2.7,6.5c0-1.6,0-6.5,0-6.5h26.1
			c0,0,3.7,6.2,4.1,6.9c0-1.1,0-6.9,0-6.9h25.3v55.1h-25.8c0,0-3.9-6.4-4.3-7.2c0,0.6,0,7.2,0,7.2h-32.4c0,0-2.8-6.5-3.6-8.4
			c-3.4,0-5.2,0-8.6,0c-0.8,1.9-3.5,8.4-3.5,8.4h-21.5l-0.5-0.1c-2.4-0.3-5.5-1.4-8.5-3.4v3.6h-17.7c0,0,0-0.1,0-0.1H254v-7.5
			c0,0,0-5.3,0-6.4c-0.2,0-1.1,0-1.7,0c0,3.2,0,13.9,0,13.9h-15.4h-9.8h-27.5h-1.9h-23.4c0,0,0-0.7,0-0.8c-0.1,0.3-0.4,0.8-0.4,0.8
			h-17.9c0,0-0.3-0.7-0.5-1c0,0.2,0,1,0,1h-32.6c0,0-2.7-6.5-3.5-8.4c-3.4,0-5.2,0-8.6,0c-0.8,1.9-3.6,8.4-3.6,8.4H91.8V416h327.1
			v-86.6C415.3,331.7,411,332.7,407.1,332.7z"/>
		<g>
			<g>
				<defs>
					<path id="SVGID_5_" d="M261.7,257.4v-7.8c0,0-0.4-6.1-6.8-6.1H245v13.9h-10.2v-40h24.7c0,0,12.9-1.6,12.9,11.7
						c0,6.9-5.7,9.3-5.7,9.3s4.9,2.3,4.9,9.1v9.9H261.7 M245,234.1h10.5c3,0,5.6-1.7,5.6-3.8c0-2.1-2.5-3.8-5.6-3.8H245V234.1
						L245,234.1"/>
				</defs>
				
					<radialGradient id="SVGID_3_" cx="136.6158" cy="140.8591" r="394.5308" gradientTransform="matrix(0.999 0 0 0.999 0.2613 0.2571)" gradientUnits="userSpaceOnUse">
					<stop  offset="0" style="stop-color:#00B7E8"/>
					<stop  offset="0.427" style="stop-color:#009ACA"/>
					<stop  offset="0.5191" style="stop-color:#008FBC"/>
					<stop  offset="0.8385" style="stop-color:#006D8F"/>
					<stop  offset="1" style="stop-color:#00607E"/>
				</radialGradient>
				<use xlink:href="#SVGID_5_"  overflow="visible" fill="url(#SVGID_3_)"/>
				<clipPath id="SVGID_4_">
					<use xlink:href="#SVGID_5_"  overflow="visible"/>
				</clipPath>
			</g>
			<g>
				<defs>
					<path id="SVGID_8_" d="M381.5,257.4l-16.1-26.7v26.7h-8.7H355h-9.5l-3.6-8.4h-18.6l-3.5,8.4h-9.3h-1.7h-4.9
						c0,0-13.7-2-13.7-18.9c0-22.2,15.5-21.3,16-21.5l12.5,0.3v9l-10.3,0.1c0,0-6.7,0-7.5,8.7c-0.1,1-0.1,1.9-0.1,2.8
						c0,13.5,11.7,9.3,12.1,9.2l12.6-29.9h14.2l15.2,36.3v-36.3h14.4l15.9,26.3v-26.3h10.2v40H381.5 M327.7,238.8h9.9l-4.9-11.9
						L327.7,238.8L327.7,238.8"/>
				</defs>
				
					<radialGradient id="SVGID_6_" cx="136.6196" cy="140.8516" r="394.5292" gradientTransform="matrix(0.999 0 0 0.999 0.2613 0.2571)" gradientUnits="userSpaceOnUse">
					<stop  offset="0" style="stop-color:#00B7E8"/>
					<stop  offset="0.427" style="stop-color:#009ACA"/>
					<stop  offset="0.5191" style="stop-color:#008FBC"/>
					<stop  offset="0.8385" style="stop-color:#006D8F"/>
					<stop  offset="1" style="stop-color:#00607E"/>
				</radialGradient>
				<use xlink:href="#SVGID_8_"  overflow="visible" fill="url(#SVGID_6_)"/>
				<clipPath id="SVGID_7_">
					<use xlink:href="#SVGID_8_"  overflow="visible"/>
				</clipPath>
			</g>
			<g>
				<defs>
					<path id="SVGID_11_" d="M181.9,257.4v-27.6l-12.7,27.6h-8.3l-12.8-27.5v27.5h-8.9h-1.4H128l-3.5-8.4H106l-3.6,8.4H91.3l16.9-40
						h14.3l15.4,36.8v-36.8h16l11.2,24.9l11.1-24.9h16v40H181.9 M110.3,238.8h9.9l-4.9-11.9L110.3,238.8L110.3,238.8"/>
				</defs>
				
					<radialGradient id="SVGID_9_" cx="136.6196" cy="140.8591" r="394.5292" gradientTransform="matrix(0.999 0 0 0.999 0.2613 0.2571)" gradientUnits="userSpaceOnUse">
					<stop  offset="0" style="stop-color:#00B7E8"/>
					<stop  offset="0.427" style="stop-color:#009ACA"/>
					<stop  offset="0.5191" style="stop-color:#008FBC"/>
					<stop  offset="0.8385" style="stop-color:#006D8F"/>
					<stop  offset="1" style="stop-color:#00607E"/>
				</radialGradient>
				<use xlink:href="#SVGID_11_"  overflow="visible" fill="url(#SVGID_9_)"/>
				<clipPath id="SVGID_10_">
					<use xlink:href="#SVGID_11_"  overflow="visible"/>
				</clipPath>
			</g>
			<g>
				<defs>
					<polyline id="SVGID_14_" points="197.9,257.4 197.9,217.4 229.6,217.4 229.6,226.7 208.1,226.7 208.1,232.9 229,232.9 
						229,241.9 208.1,241.9 208.1,248.7 229.6,248.7 229.6,257.4 197.9,257.4 					"/>
				</defs>
				
					<radialGradient id="SVGID_12_" cx="136.6158" cy="140.8591" r="394.5277" gradientTransform="matrix(0.999 0 0 0.999 0.2613 0.2571)" gradientUnits="userSpaceOnUse">
					<stop  offset="0" style="stop-color:#00B7E8"/>
					<stop  offset="0.427" style="stop-color:#009ACA"/>
					<stop  offset="0.5191" style="stop-color:#008FBC"/>
					<stop  offset="0.8385" style="stop-color:#006D8F"/>
					<stop  offset="1" style="stop-color:#00607E"/>
				</radialGradient>
				<use xlink:href="#SVGID_14_"  overflow="visible" fill="url(#SVGID_12_)"/>
				<clipPath id="SVGID_13_">
					<use xlink:href="#SVGID_14_"  overflow="visible"/>
				</clipPath>
			</g>
			<g>
				<defs>
					<polyline id="SVGID_17_" points="276.6,257.5 276.6,217.4 286.8,217.4 286.8,257.5 276.6,257.5 					"/>
				</defs>
				
					<radialGradient id="SVGID_15_" cx="136.6158" cy="140.8629" r="394.5338" gradientTransform="matrix(0.999 0 0 0.999 0.2613 0.2571)" gradientUnits="userSpaceOnUse">
					<stop  offset="0" style="stop-color:#00B7E8"/>
					<stop  offset="0.427" style="stop-color:#009ACA"/>
					<stop  offset="0.5191" style="stop-color:#008FBC"/>
					<stop  offset="0.8385" style="stop-color:#006D8F"/>
					<stop  offset="1" style="stop-color:#00607E"/>
				</radialGradient>
				<use xlink:href="#SVGID_17_"  overflow="visible" fill="url(#SVGID_15_)"/>
				<clipPath id="SVGID_16_">
					<use xlink:href="#SVGID_17_"  overflow="visible"/>
				</clipPath>
			</g>
		</g>
		<g>
			<g>
				<defs>
					<path id="SVGID_20_" d="M300.9,325.2v-7.8c0,0-0.4-6.1-6.8-6.1h-9.9v13.9H274v-40h24.7c0,0,12.9-1.6,12.9,11.7
						c0,6.9-5.7,9.3-5.7,9.3s4.9,2.3,4.9,9.1v9.9H300.9 M284.2,302h10.5c3,0,5.5-1.7,5.5-3.8s-2.5-3.8-5.5-3.8h-10.5V302L284.2,302"
						/>
				</defs>
				
					<radialGradient id="SVGID_18_" cx="136.6158" cy="140.8629" r="394.5225" gradientTransform="matrix(0.999 0 0 0.999 0.2613 0.2571)" gradientUnits="userSpaceOnUse">
					<stop  offset="0" style="stop-color:#00B7E8"/>
					<stop  offset="0.427" style="stop-color:#009ACA"/>
					<stop  offset="0.5191" style="stop-color:#008FBC"/>
					<stop  offset="0.8385" style="stop-color:#006D8F"/>
					<stop  offset="1" style="stop-color:#00607E"/>
				</radialGradient>
				<use xlink:href="#SVGID_20_"  overflow="visible" fill="url(#SVGID_18_)"/>
				<clipPath id="SVGID_19_">
					<use xlink:href="#SVGID_20_"  overflow="visible"/>
				</clipPath>
			</g>
			<g>
				<defs>
					<path id="SVGID_23_" d="M233.1,325.2h-8.9l-10.8-11.9l-10.8,11.9h-6.2h-31.6v-40.1h31.6h5.4l11.7,12.7l11.7-12.7h7.8v-0.1h24.7
						c0,0,12.9-1.4,12.9,11.8c0,11.8-4.3,15.4-17.4,15.4h-10v12.9H233.1 M220.4,305.5l12.6,13.9v-27.8L220.4,305.5L220.4,305.5
						 M175.1,316.5h21.4l10-11l-10-11h-21.4v6.2H196v9.1h-20.9V316.5L175.1,316.5 M243.2,301.9h10.5c3,0,5.6-1.7,5.6-3.8
						c0-2.1-2.5-3.8-5.6-3.8h-10.5V301.9L243.2,301.9"/>
				</defs>
				
					<radialGradient id="SVGID_21_" cx="136.6196" cy="140.8553" r="394.5383" gradientTransform="matrix(0.999 0 0 0.999 0.2613 0.2571)" gradientUnits="userSpaceOnUse">
					<stop  offset="0" style="stop-color:#00B7E8"/>
					<stop  offset="0.427" style="stop-color:#009ACA"/>
					<stop  offset="0.5191" style="stop-color:#008FBC"/>
					<stop  offset="0.8385" style="stop-color:#006D8F"/>
					<stop  offset="1" style="stop-color:#00607E"/>
				</radialGradient>
				<use xlink:href="#SVGID_23_"  overflow="visible" fill="url(#SVGID_21_)"/>
				<clipPath id="SVGID_22_">
					<use xlink:href="#SVGID_23_"  overflow="visible"/>
				</clipPath>
			</g>
			<g>
				<defs>
					<path id="SVGID_26_" d="M370.2,325.1h-18.1v-9.2h15.9c0,0,5.7,0.7,5.7-3.2c0-3.6-8.6-3.3-8.6-3.3s-14,1.2-14-11.9
						c0-13.1,12.7-12.3,12.7-12.3h19.5v9.3h-15.7c0,0-5.4-1.1-5.4,2.9c0,3.3,7.4,2.8,7.4,2.8s15.5-1.1,15.5,10.9
						c0,12.9-10,14.1-13.5,14.1C370.6,325.2,370.2,325.1,370.2,325.1"/>
				</defs>
				
					<radialGradient id="SVGID_24_" cx="136.6158" cy="140.8629" r="394.5323" gradientTransform="matrix(0.999 0 0 0.999 0.2613 0.2571)" gradientUnits="userSpaceOnUse">
					<stop  offset="0" style="stop-color:#00B7E8"/>
					<stop  offset="0.427" style="stop-color:#009ACA"/>
					<stop  offset="0.5191" style="stop-color:#008FBC"/>
					<stop  offset="0.8385" style="stop-color:#006D8F"/>
					<stop  offset="1" style="stop-color:#00607E"/>
				</radialGradient>
				<use xlink:href="#SVGID_26_"  overflow="visible" fill="url(#SVGID_24_)"/>
				<clipPath id="SVGID_25_">
					<use xlink:href="#SVGID_26_"  overflow="visible"/>
				</clipPath>
			</g>
			<g>
				<defs>
					<polyline id="SVGID_29_" points="315.8,325.2 315.8,285.2 347.5,285.2 347.5,294.5 326,294.5 326,300.7 346.9,300.7 
						346.9,309.7 326,309.7 326,316.5 347.5,316.5 347.5,325.2 315.8,325.2 					"/>
				</defs>
				
					<radialGradient id="SVGID_27_" cx="136.6158" cy="140.8553" r="394.5421" gradientTransform="matrix(0.999 0 0 0.999 0.2613 0.2571)" gradientUnits="userSpaceOnUse">
					<stop  offset="0" style="stop-color:#00B7E8"/>
					<stop  offset="0.427" style="stop-color:#009ACA"/>
					<stop  offset="0.5191" style="stop-color:#008FBC"/>
					<stop  offset="0.8385" style="stop-color:#006D8F"/>
					<stop  offset="1" style="stop-color:#00607E"/>
				</radialGradient>
				<use xlink:href="#SVGID_29_"  overflow="visible" fill="url(#SVGID_27_)"/>
				<clipPath id="SVGID_28_">
					<use xlink:href="#SVGID_29_"  overflow="visible"/>
				</clipPath>
			</g>
			<g>
				<defs>
					<path id="SVGID_32_" d="M406,325.1h-18.1v-9.2h15.8c0,0,5.8,0.7,5.8-3.2c0-3.6-8.6-3.3-8.6-3.3s-14,1.2-14-11.9
						c0-13.1,12.7-12.3,12.7-12.3h19.4v9.3h-15.7c0,0-5.4-1.1-5.4,2.9c0,3.3,7.4,2.8,7.4,2.8s15.5-1.1,15.5,10.9
						c0,12.9-10,14.1-13.5,14.1C406.4,325.2,406,325.1,406,325.1"/>
				</defs>
				
					<radialGradient id="SVGID_30_" cx="136.6158" cy="140.8629" r="394.5225" gradientTransform="matrix(0.999 0 0 0.999 0.2613 0.2571)" gradientUnits="userSpaceOnUse">
					<stop  offset="0" style="stop-color:#00B7E8"/>
					<stop  offset="0.427" style="stop-color:#009ACA"/>
					<stop  offset="0.5191" style="stop-color:#008FBC"/>
					<stop  offset="0.8385" style="stop-color:#006D8F"/>
					<stop  offset="1" style="stop-color:#00607E"/>
				</radialGradient>
				<use xlink:href="#SVGID_32_"  overflow="visible" fill="url(#SVGID_30_)"/>
				<clipPath id="SVGID_31_">
					<use xlink:href="#SVGID_32_"  overflow="visible"/>
				</clipPath>
			</g>
		</g>
	</g>
</g>
<g id="gUIDES">
</g>
</svg>
