<?xml version="1.0" encoding="utf-8"?>
<!-- Generator: Adobe Illustrator 17.1.0, SVG Export Plug-In . SVG Version: 6.00 Build 0)  -->
<!DOCTYPE svg PUBLIC "-//W3C//DTD SVG 1.1//EN" "http://www.w3.org/Graphics/SVG/1.1/DTD/svg11.dtd">
<svg version="1.1" xmlns="http://www.w3.org/2000/svg" xmlns:xlink="http://www.w3.org/1999/xlink" x="0px" y="0px"
	 viewBox="0 0 512 512" enable-background="new 0 0 512 512" xml:space="preserve">
<g id="Base" display="none">
</g>
<g id="Layer_1">
	<g>
		<path fill="#F28527" d="M205.2,256c0-84.7,68.7-153.4,153.4-153.4c84.7,0,153.4,68.7,153.4,153.4c0,84.7-68.7,153.4-153.4,153.4
			C273.9,409.4,205.2,340.7,205.2,256L205.2,256z"/>
		<path fill="#ED2129" d="M255.9,141.8c0.1,0-8,7-13.5,13.9h27.3c0,0,9.3,10.1,12.8,17.7h-53.3c0,0-5.2,8.1-8.6,15h70.6
			c0,0,6.4,12.1,7.9,18.4h-85.8c0,0-3,8.4-4.2,14.5l93.9-0.1c2.6,11.8,8.8,46.1-4.1,84l-85.3,0.1c1.4,4.5,3.7,10.7,5.9,15.2h73.3
			c-3,6.2-7.3,13.9-9.7,17.8l-53.7,0c2.8,4.3,7.4,11.1,10.3,14.1l33.1,0c-6.2,8.6-16.7,17.4-16.7,17.4h-0.3l0.3,0.1
			c-27.2,24.5-63.1,39.4-102.6,39.4C68.7,409.4,0,340.7,0,256c0-84.7,68.7-153.4,153.4-153.4C192.8,102.6,228.7,117.4,255.9,141.8
			L255.9,141.8z"/>
		<path fill="#323678" d="M180.2,234.2l-2.5,13.8l-13.5-0.3c0,0-6.7,1.8-6.7,4.6c0,2.8,5,6.4,12.4,9.6c7.4,3.2,7.8,12,7.1,18
			c-0.7,6-1.8,18.5-23.4,19.1c-12.4,0.4-19.1-2.1-19.1-2.1l2.8-14.2c0,0,15.9,4.3,19.5,1.8c3.5-2.5,7.8-6.7,1.1-9.6
			c-6.7-2.8-17.7-7.4-17.7-18.8c0-11.3,4.6-17.7,11.7-20.9C158.9,232.1,171.3,232.4,180.2,234.2L180.2,234.2z"/>
		<polygon fill="#323678" points="73.8,297.4 58.2,297.4 67.3,243.6 48,297.1 37.1,297.1 34.5,241.4 25.1,297.4 10.3,297.4 
			24.2,215.3 42.2,215.3 48.5,262.5 69.3,215.3 87.8,215.3 73.8,297.4 		"/>
		<path fill="#323678" d="M194.2,298.5c-5.1,0-8.7-1.2-10.9-3.3c-2.2-2.3-3.3-5.8-3.3-10.2c0-1.2,0.1-2.3,0.3-3.3
			c0.1-1.2,0.4-2.5,0.5-3.9l9.4-52.6h14.7l-2.1,10.3h13.7l-2.3,13h-13.7l-3.8,22.4c-0.2,1.5-0.5,3-0.7,4.6c-0.3,1.5-0.4,3-0.4,3.9
			c0,2.3,0.4,3.8,1.3,4.6c0.9,0.8,2.3,1.3,4.3,1.3c0.7,0,1.7-0.2,2.9-0.5c1.2-0.5,2.3-0.8,3-1.3h1.2l-2.3,13.2
			c-1.7,0.7-3.4,1-5.2,1.3C198.9,298.4,196.7,298.5,194.2,298.5L194.2,298.5z"/>
		<path fill="#323678" d="M299.4,252.8c-3.2-2.5-10.3-2-11.8,3.1l-7,41.4h-14.7l10.6-61.8h14.7l-0.3,5c2.8-2.8,5.9-5.2,13.8-4.9
			C305.1,235.6,299.9,244.8,299.4,252.8L299.4,252.8z"/>
		<path fill="#323678" d="M327.2,299c-8.1,0-14.5-2.8-18.9-8.2c-4.5-5.4-6.7-13.3-6.7-23.5c0-8,1-15.3,2.9-21.9
			c1.9-6.6,4.7-12.2,8.1-16.9c3.4-4.6,7.4-8.2,12.1-10.8c4.6-2.6,9.6-3.9,14.8-3.9c4.1,0,8,0.6,11.6,1.8c1.8,0.6,5.1,2.2,5.1,2.2
			l-3.4,19.5c-1.7-2.2-3.4-3.9-5.1-5.1c-2.5-1.6-5.6-2.6-9-2.6c-6.1,0-11,3.3-14.9,9.9c-4,6.6-5.9,15-5.9,25.2
			c0,6.6,1.1,11.4,3.3,14.3c2.2,2.8,5.3,4.3,9.5,4.3c3.8,0,7.3-1,10.6-3c1.6-1,3.1-2.1,4.6-3.3l-3.4,18.6c0,0-1.8,0.9-2.6,1.2
			c-2.1,0.8-3.9,1.3-5.4,1.8C332.6,298.7,330.2,299,327.2,299L327.2,299z"/>
		<path fill="#323678" d="M110,295.2c-0.6,0.5-1.2,0.8-1.7,1.1c-1.6,0.8-2.9,1.5-4.3,2c-1.3,0.3-3.2,0.7-5.6,0.7
			c-3.8,0-6.9-1.5-9.2-4.3c-2.4-3-3.6-6.7-3.6-11.3c0-4.9,0.9-9.1,2.6-12.5c1.7-3.3,4.2-6.1,7.6-8.1c3.2-2,6.9-3.3,11.2-4.1l3-0.5
			c3.5-0.7,7.2-1.1,11.2-1.3c0-0.3,0-0.7,0.1-1.1c0.1-0.5,0.1-1,0.1-1.6c0-2.6-0.8-4.4-2.7-5.6c-1.8-1-4.5-1.5-8-1.5H110
			c-2.2,0.2-4.6,0.7-7.3,1.6c-2.9,1.2-5.1,2-6.6,2.8h-1.3l2.2-14.6c1.7-0.7,4.4-1.3,7.9-2c1.7-0.5,3.4-0.7,5.1-0.8
			c1.8-0.3,3.8-0.3,5.6-0.3c7.2,0,12.4,1.3,15.8,3.8c3.4,2.5,5,6.4,5,11.8c0,0.7,0,1.6-0.1,2.8c-0.1,1.2-0.2,2.1-0.4,3.1l-7.2,42.1
			h-14.6l1.1-6.6c-0.9,0.8-2.1,1.8-3.3,3C111.2,294.2,110.6,294.7,110,295.2L110,295.2z M110,269.6c-1.6,0.3-2.9,0.8-4,1.3
			c-1.7,0.8-2.9,2-3.8,3.5c-1,1.5-1.3,3.5-1.3,5.9c0,2.1,0.6,3.6,1.7,4.4c1.2,0.8,2.8,1.3,5.1,1.3c0.7,0,1.5-0.2,2.3-0.5
			c0.7-0.2,1.4-0.5,2.3-0.8c1.6-1,3.1-2.1,4.6-3.5l2.2-13.2c-2.6,0.3-5.1,0.7-7.3,1.2C111.2,269.3,110.6,269.4,110,269.6L110,269.6z
			"/>
		<path fill="#323678" d="M236.8,246.2c-2,0.3-3.8,1.3-5.2,3c-2.1,2.3-3.6,5.3-4.7,9.2h9.9h9.8c0-0.7,0.1-1.2,0.1-1.8
			c0-0.5,0.1-1.1,0.1-1.6c0-3-0.7-5.1-2.1-6.8c-1.3-1.5-3.1-2.3-5.7-2.3C238.4,245.9,237.5,246,236.8,246.2L236.8,246.2z M236.8,285
			h2.2c3.1,0,6.2-0.7,9.1-2.1c2.8-1.5,5.3-3.1,7.4-4.9h1.7l-2.8,16c-2.8,1.6-5.8,3-9,3.8c-2.7,0.8-5.6,1.2-8.6,1.3h-1.3
			c-7.9,0-13.8-2.3-18.1-7.1c-4.3-4.6-6.3-11-6.3-19.2c0-5.6,0.7-10.9,2.1-15.5c1.3-4.8,3.4-8.9,6-12.5c2.5-3.5,5.6-6.1,9.3-8.2
			c2.7-1.3,5.5-2.3,8.4-2.8c1.3-0.2,2.6-0.2,4-0.2c6.8,0,11.9,1.8,15.4,5.6c3.4,3.6,5.1,9.2,5.1,16.4c0,2.5-0.1,4.9-0.5,7.4
			c-0.4,2.3-0.8,4.8-1.5,7.1h-22.5h-11.4v0.7v0.7c0,4.3,1.2,7.6,3.4,10C230.6,283.4,233.3,284.7,236.8,285L236.8,285z"/>
		<path fill="#323678" d="M374.3,295.2c-0.6,0.5-1.2,0.8-1.8,1.1c-1.5,0.8-2.9,1.5-4.3,2c-1.3,0.3-3.2,0.7-5.5,0.7
			c-3.9,0-6.9-1.5-9.3-4.3c-2.4-3-3.5-6.7-3.5-11.3c0-4.9,0.9-9.1,2.6-12.5c1.7-3.3,4.2-6.1,7.5-8.1c3.2-2,6.9-3.3,11.3-4.1
			c1-0.2,1.9-0.3,3.1-0.5c3.4-0.7,7.1-1.1,11-1.3c0.1-0.3,0.1-0.7,0.3-1.1c0-0.5,0.1-1,0.1-1.6c0-2.6-1-4.4-2.7-5.6
			c-1.8-1-4.5-1.5-8-1.5h-0.7c-2.3,0.2-4.7,0.7-7.3,1.6c-2.9,1.2-5.1,2-6.5,2.8h-1.3l2.1-14.6c1.7-0.7,4.4-1.3,8-2
			c1.7-0.5,3.4-0.7,5.1-0.8c1.8-0.3,3.6-0.3,5.6-0.3c7.1,0,12.4,1.3,15.8,3.8c3.3,2.5,5,6.4,5,11.8c0,0.7,0,1.6-0.1,2.8
			c-0.1,1.2-0.2,2.1-0.4,3.1l-7.2,42.1h-14.6l1.1-6.6c-1,0.8-2.1,1.8-3.4,3L374.3,295.2L374.3,295.2z M374.3,269.6
			c-1.6,0.3-2.9,0.8-4.1,1.3c-1.6,0.8-2.9,2-3.8,3.5c-0.8,1.5-1.3,3.5-1.3,5.9c0,2.1,0.6,3.6,1.8,4.4c1.1,0.8,2.8,1.3,5,1.3
			c0.7,0,1.6-0.2,2.4-0.5c0.7-0.2,1.4-0.5,2.2-0.8c1.7-1,3.2-2.1,4.6-3.5l2.3-13.2c-2.7,0.3-5.1,0.7-7.4,1.2
			C375.3,269.3,374.7,269.4,374.3,269.6L374.3,269.6z"/>
		<path fill="#323678" d="M436.1,252.8c-3.2-2.5-10.3-2-11.8,3.1l-7,41.4h-14.7l10.5-61.8h14.7l-0.3,5c2.8-2.8,5.9-5.2,13.8-4.9
			C441.8,235.6,436.5,244.8,436.1,252.8L436.1,252.8z"/>
		<path fill-rule="evenodd" clip-rule="evenodd" fill="#323678" d="M465,248.7c-0.7,0.3-1.5,0.8-2.1,1.3c-1.9,1.3-3.5,3.3-4.8,5.6
			c-1.1,2.3-2.1,4.9-2.7,8.4c-0.7,3.3-1.1,6.6-1.1,9.7c0,3.8,0.7,6.4,2,8.1c1.3,1.8,3.3,2.6,5.8,2.6c1,0,1.9-0.2,2.9-0.7
			c0.5-0.2,0.9-0.3,1.3-0.7c1.5-0.8,2.8-1.7,4.1-2.8l5.2-30.4c-0.8-0.5-1.8-1-3.1-1.3c-1.2-0.5-2.3-0.7-3.3-0.7
			C467.6,247.8,466.3,248.2,465,248.7L465,248.7z M465,294.1c-1.1,1-2.3,2-3.6,2.8c-1.2,0.7-2.4,1.3-3.5,1.6
			c-1.2,0.3-2.7,0.5-4.2,0.5c-4.5,0-8-2-10.7-5.8c-2.5-3.9-3.9-9.5-3.9-16.6c0-5.9,0.6-11.5,2-16.6c1.3-5.1,3.3-9.7,5.7-13.6
			c2.4-3.9,5.2-6.9,8.5-9.2c3.1-2.1,6.3-3.3,9.7-3.5h0.5c2.6,0,4.7,0.3,6.5,1c1.8,0.7,3.8,1.8,5.7,3.3l3.3-21.6h14.7l-13.4,80.9
			h-14.7l1.1-6.4C467.2,292.1,466.1,293.1,465,294.1L465,294.1z"/>
		<path fill="#FFFFFF" d="M183.1,232l-2.5,13.8l-13.5-0.3c0,0-6.7,1.8-6.7,4.6c0,2.8,5,6.4,12.4,9.6c7.4,3.2,7.8,12,7.1,18.1
			c-0.7,6-1.8,18.5-23.4,19.1c-12.4,0.4-19.1-2.1-19.1-2.1l2.8-14.2c0,0,15.9,4.3,19.5,1.8c3.5-2.5,7.8-6.7,1.1-9.6
			c-6.7-2.8-17.7-7.4-17.7-18.8c0-11.3,4.6-17.7,11.7-20.9C161.9,229.9,174.3,230.2,183.1,232L183.1,232z"/>
		<polygon fill="#FFFFFF" points="76.8,295.2 61.1,295.2 70.2,241.4 50.9,294.8 40.1,294.8 37.5,239.2 28,295.2 13.2,295.2 
			27.2,213.1 45.1,213.1 51.4,260.3 72.3,213.1 90.7,213.1 76.8,295.2 		"/>
		<path fill="#FFFFFF" d="M197.1,296.3c-5.1,0-8.7-1.1-10.9-3.3c-2.2-2.3-3.3-5.8-3.3-10.2c0-1.2,0.1-2.3,0.2-3.3
			c0.1-1.1,0.4-2.5,0.5-3.9l9.4-52.5h14.7l-2.1,10.2h13.7l-2.3,13h-13.7l-3.8,22.4c-0.2,1.5-0.5,2.9-0.7,4.6c-0.2,1.5-0.4,3-0.4,4
			c0,2.3,0.4,3.8,1.3,4.6c0.9,0.8,2.3,1.3,4.2,1.3c0.7,0,1.7-0.2,2.9-0.5c1.2-0.5,2.3-0.8,3-1.3h1.2l-2.3,13.2
			c-1.7,0.7-3.4,1-5.2,1.3C201.8,296.1,199.7,296.3,197.1,296.3L197.1,296.3z"/>
		<path fill="#FFFFFF" d="M302.4,250.6c-3.2-2.5-10.3-2-11.8,3.1l-7,41.5h-14.7l10.6-61.9h14.7l-0.3,5c2.8-2.8,5.9-5.2,13.7-4.9
			C308,233.4,302.8,242.6,302.4,250.6L302.4,250.6z"/>
		<path fill="#FFFFFF" d="M330.1,296.8c-8.1,0-14.6-2.8-18.9-8.2c-4.5-5.4-6.7-13.3-6.7-23.5c0-8.1,1-15.3,2.9-21.9
			c1.9-6.6,4.7-12.2,8.1-16.9c3.4-4.6,7.4-8.2,12.1-10.8c4.6-2.6,9.6-4,14.8-4c4.1,0,8,0.7,11.7,1.8c1.8,0.6,5.1,2.2,5.1,2.2
			l-3.4,19.5c-1.7-2.2-3.4-3.9-5.1-5.1c-2.6-1.6-5.6-2.6-9-2.6c-6.1,0-11,3.3-14.9,9.9c-4,6.6-5.9,15-5.9,25.2
			c0,6.6,1.1,11.4,3.3,14.3c2.2,2.8,5.3,4.3,9.5,4.3c3.8,0,7.3-1,10.6-3c1.5-1,3.1-2.1,4.6-3.3l-3.4,18.6c0,0-1.8,0.9-2.6,1.2
			c-2.1,0.8-3.9,1.3-5.4,1.8C335.6,296.5,333.2,296.8,330.1,296.8L330.1,296.8z"/>
		<path fill="#FFFFFF" d="M112.9,293c-0.6,0.5-1.2,0.8-1.7,1.2c-1.6,0.8-2.9,1.5-4.3,2c-1.3,0.3-3.1,0.7-5.6,0.7
			c-3.8,0-6.9-1.5-9.2-4.3c-2.4-3-3.6-6.8-3.6-11.3c0-4.9,0.8-9.1,2.5-12.5c1.7-3.3,4.2-6.1,7.7-8.1c3.1-2,6.9-3.3,11.2-4.1l3-0.5
			c3.5-0.7,7.2-1.1,11.2-1.3c0-0.3,0-0.7,0.1-1.1c0.1-0.5,0.1-1,0.1-1.6c0-2.6-0.9-4.4-2.7-5.6c-1.8-1-4.5-1.5-8-1.5h-0.7
			c-2.2,0.2-4.6,0.7-7.3,1.6c-2.9,1.2-5.1,2-6.6,2.8h-1.3l2.2-14.6c1.7-0.7,4.4-1.3,7.9-2c1.7-0.5,3.4-0.7,5.1-0.8
			c1.8-0.3,3.8-0.3,5.6-0.3c7.2,0,12.4,1.3,15.8,3.8c3.4,2.5,5,6.4,5,11.8c0,0.7,0,1.6-0.1,2.8c-0.1,1.2-0.3,2.1-0.4,3.1l-7.1,42.1
			H117l1.1-6.6c-0.9,0.8-2.1,1.8-3.3,3C114.1,292,113.5,292.5,112.9,293L112.9,293z M112.9,267.4c-1.6,0.3-2.9,0.8-4,1.3
			c-1.7,0.8-2.9,2-3.8,3.4c-1,1.5-1.3,3.5-1.3,5.9c0,2.1,0.6,3.6,1.7,4.4c1.2,0.8,2.8,1.3,5.1,1.3c0.7,0,1.4-0.2,2.3-0.5
			c0.7-0.2,1.5-0.5,2.3-0.8c1.6-1,3.1-2.1,4.6-3.5l2.2-13.2c-2.5,0.3-5.1,0.7-7.3,1.2C114.1,267,113.5,267.2,112.9,267.4
			L112.9,267.4z"/>
		<path fill="#FFFFFF" d="M239.7,244c-1.9,0.3-3.8,1.3-5.2,3c-2.1,2.3-3.6,5.3-4.7,9.2h9.9h9.8c0-0.7,0.1-1.2,0.1-1.8
			c0-0.5,0.1-1.1,0.1-1.6c0-3-0.7-5.1-2.1-6.8c-1.3-1.5-3.2-2.3-5.7-2.3C241.3,243.7,240.5,243.8,239.7,244L239.7,244z M239.7,282.8
			h2.2c3.2,0,6.2-0.7,9.1-2.1c2.8-1.5,5.3-3.1,7.4-4.9h1.7l-2.8,16c-2.8,1.7-5.8,3-9,3.8c-2.7,0.8-5.6,1.1-8.6,1.3h-1.3
			c-7.9,0-13.8-2.3-18.1-7.1c-4.2-4.6-6.3-11-6.3-19.2c0-5.6,0.7-10.9,2.1-15.5c1.3-4.8,3.4-8.9,5.9-12.5c2.5-3.4,5.6-6.1,9.3-8.2
			c2.7-1.3,5.5-2.3,8.4-2.8c1.3-0.2,2.7-0.2,4-0.2c6.8,0,11.9,1.8,15.4,5.6c3.4,3.6,5.1,9.2,5.1,16.5c0,2.5-0.1,4.9-0.5,7.4
			c-0.4,2.3-0.9,4.8-1.5,7.1h-22.6h-11.4v0.7v0.7c0,4.3,1.2,7.6,3.4,10C233.6,281.2,236.2,282.5,239.7,282.8L239.7,282.8z"/>
		<path fill="#FFFFFF" d="M377.2,293c-0.6,0.5-1.2,0.8-1.8,1.2c-1.5,0.8-2.9,1.5-4.2,2c-1.3,0.3-3.2,0.7-5.5,0.7
			c-3.9,0-6.9-1.5-9.3-4.3c-2.4-3-3.5-6.8-3.5-11.3c0-4.9,0.8-9.1,2.6-12.5c1.7-3.3,4.2-6.1,7.5-8.1c3.1-2,6.9-3.3,11.3-4.1
			c1-0.2,1.9-0.3,3-0.5c3.4-0.7,7.2-1.1,11.1-1.3c0.1-0.3,0.1-0.7,0.2-1.1c0-0.5,0.1-1,0.1-1.6c0-2.6-1-4.4-2.7-5.6
			c-1.8-1-4.5-1.5-8-1.5h-0.7c-2.3,0.2-4.7,0.7-7.3,1.6c-2.9,1.2-5.1,2-6.5,2.8H362l2.1-14.6c1.7-0.7,4.3-1.3,8-2
			c1.7-0.5,3.4-0.7,5.1-0.8c1.8-0.3,3.6-0.3,5.6-0.3c7.2,0,12.4,1.3,15.8,3.8c3.3,2.5,5,6.4,5,11.8c0,0.7,0,1.6-0.1,2.8
			c-0.1,1.2-0.3,2.1-0.4,3.1l-7.1,42.1h-14.6l1.1-6.6c-1,0.8-2.1,1.8-3.4,3L377.2,293L377.2,293z M377.2,267.4
			c-1.6,0.3-2.9,0.8-4.1,1.3c-1.6,0.8-2.9,2-3.7,3.4c-0.9,1.5-1.4,3.5-1.4,5.9c0,2.1,0.6,3.6,1.8,4.4c1.1,0.8,2.8,1.3,5,1.3
			c0.7,0,1.6-0.2,2.4-0.5c0.7-0.2,1.5-0.5,2.2-0.8c1.7-1,3.2-2.1,4.6-3.5l2.3-13.2c-2.7,0.3-5.1,0.7-7.4,1.2
			C378.3,267,377.7,267.2,377.2,267.4L377.2,267.4z"/>
		<path fill="#FFFFFF" d="M439.1,250.6c-3.2-2.5-10.3-2-11.8,3.1l-7,41.5h-14.7l10.5-61.9h14.7l-0.3,5c2.8-2.8,5.9-5.2,13.8-4.9
			C444.7,233.4,439.5,242.6,439.1,250.6L439.1,250.6z"/>
		<path fill-rule="evenodd" clip-rule="evenodd" fill="#FFFFFF" d="M467.9,246.5c-0.7,0.3-1.4,0.8-2.1,1.3c-2,1.3-3.5,3.3-4.8,5.6
			c-1.1,2.3-2.1,4.9-2.7,8.4c-0.7,3.3-1.1,6.6-1.1,9.7c0,3.8,0.7,6.4,1.9,8.1c1.4,1.8,3.3,2.6,5.8,2.6c1,0,2-0.2,2.9-0.7
			c0.5-0.2,0.9-0.3,1.3-0.7c1.5-0.8,2.8-1.7,4.1-2.8l5.2-30.4c-0.8-0.5-1.8-1-3.1-1.3c-1.2-0.5-2.3-0.6-3.3-0.6
			C470.6,245.6,469.2,246,467.9,246.5L467.9,246.5z M467.9,291.9c-1.1,1-2.3,2-3.6,2.8c-1.2,0.7-2.4,1.3-3.5,1.6
			c-1.2,0.3-2.7,0.5-4.2,0.5c-4.5,0-8-2-10.7-5.8c-2.5-3.9-3.9-9.5-3.9-16.6c0-5.9,0.6-11.5,2.1-16.6c1.3-5.1,3.3-9.7,5.7-13.6
			c2.4-4,5.2-6.9,8.5-9.2c3.2-2.1,6.3-3.3,9.7-3.5h0.5c2.5,0,4.7,0.3,6.6,1c1.8,0.7,3.8,1.8,5.7,3.3l3.3-21.6h14.7l-13.4,80.9h-14.7
			l1.1-6.4C470.2,289.9,469,290.9,467.9,291.9L467.9,291.9z"/>
	</g>
</g>
<g id="gUIDES">
</g>
</svg>
