<?xml version="1.0" encoding="utf-8"?>
<!-- Generator: Adobe Illustrator 17.1.0, SVG Export Plug-In . SVG Version: 6.00 Build 0)  -->
<!DOCTYPE svg PUBLIC "-//W3C//DTD SVG 1.1//EN" "http://www.w3.org/Graphics/SVG/1.1/DTD/svg11.dtd">
<svg version="1.1" xmlns="http://www.w3.org/2000/svg" xmlns:xlink="http://www.w3.org/1999/xlink" x="0px" y="0px"
	 viewBox="0 0 512 512" enable-background="new 0 0 512 512" xml:space="preserve">
<g id="Base" display="none">
</g>
<g id="Layer_1">
	<g>
		<g>
			<path fill="#0069AA" d="M292.6,416.4c87.5,0.4,167.4-71.3,167.4-158.6c0-95.4-79.9-161.4-167.4-161.4h-75.2
				c-88.6,0-161.4,66-161.4,161.4c0,87.3,72.8,159,161.4,158.6H292.6z"/>
			<path fill="#FFFFFF" d="M217.7,109.7c-80.9,0-146.4,65.6-146.4,146.5c0,80.9,65.6,146.4,146.4,146.4
				c80.8,0,146.4-65.6,146.5-146.4C364.1,175.3,298.5,109.7,217.7,109.7 M124.8,256.2c0.1-39.6,24.8-73.2,59.6-86.7v173.3
				C149.6,329.4,124.9,295.7,124.8,256.2 M250.9,342.8V169.5c34.8,13.3,59.6,47.1,59.6,86.7C310.5,295.7,285.7,329.4,250.9,342.8"/>
		</g>
	</g>
</g>
<g id="gUIDES">
</g>
</svg>
