<?xml version="1.0" encoding="utf-8"?>
<!-- Generator: Adobe Illustrator 17.1.0, SVG Export Plug-In . SVG Version: 6.00 Build 0)  -->
<!DOCTYPE svg PUBLIC "-//W3C//DTD SVG 1.1//EN" "http://www.w3.org/Graphics/SVG/1.1/DTD/svg11.dtd">
<svg version="1.1" xmlns="http://www.w3.org/2000/svg" xmlns:xlink="http://www.w3.org/1999/xlink" x="0px" y="0px"
	 viewBox="0 0 512 512" enable-background="new 0 0 512 512" xml:space="preserve">
<g id="Base" display="none">
</g>
<g id="Layer_1">
	<g>
		<path id="fundo" fill-rule="evenodd" clip-rule="evenodd" fill="#961B1E" d="M140.6,128.6c-17.7,0-53.1,0-53.1,0
			c-23.4,1.1-42.6,10.6-48.1,30c-2.9,10.2-4.5,21.3-6.7,31.8C21.1,244,11,299,0,351.4h413.1c31.9,0,53.9-6.7,59.8-32.1
			c2.8-11.8,5.4-25.1,8-38.1c10.3-50.4,20.5-100.9,31.1-152.7H140.6z"/>
		<path id="hipercard" fill-rule="evenodd" clip-rule="evenodd" fill="#FFFFFF" d="M135.9,202.3c2.2-1.5,5.1-8.5,1.8-11.4
			c-1-0.9-2.8-1.2-5.2-0.8c-2.2,0.4-3.5,1.1-4.4,2.3c-1.4,1.9-2.7,7.7-0.5,9.8C129.7,204.4,134.5,203.3,135.9,202.3z M104.3,190.9
			c-1.6,10.3-3.4,20.4-5.2,30.5c-11.5,0.1-23.3,0.6-34.4-0.3c2.1-9.9,3.6-20.4,5.7-30.3H58c-4.4,25.2-8.5,50.9-13.5,75.6h12.7
			c2-12.7,3.8-25.5,6.5-37.5c10.8-0.3,23.8-0.7,34.2,0.3c-2.1,12.5-4.7,24.6-6.7,37.3h12.7c4.1-25.6,8.4-51,13.5-75.6H104.3z
			 M283.7,212.7c-9.9-4-17.6,2.8-21.2,9.1c0.8-2.8,1.2-6.1,1.8-9.1h-9.8c-2.4,18.6-5.9,36.2-9.3,53.8h11.1
			c1.6-10.5,2.2-24.6,5.7-34.7c2.8-8,10-14.9,20.4-11.1C282.5,217.8,283.4,215.5,283.7,212.7z M289.9,253.8c-1-2.7-1.3-7-1-10.4
			c0.6-7.5,3.3-16.6,7.5-20.7c5.8-5.7,17.3-4.7,26.4-1.6c0.3-3.1,0.9-5.8,1.3-8.8c-15-2.4-29.2-0.9-36.8,7
			c-7.4,7.7-12.2,25.6-8.8,36.8c4,13.1,22,13.8,36.5,8.8c0.6-2.6,1-5.6,1.6-8.3C308.6,260.8,293.4,263,289.9,253.8z M414.9,213
			c-9.8-4.9-18,3.3-21.2,8.3c0.9-2.5,1-5.9,1.8-8.5h-9.8c-2.7,18.5-5.8,36.4-9.6,53.8h11.4c0.1-7.1,1.5-12.4,2.6-19.4
			c2.4-14.9,5.9-31.3,23.3-26.4C414,218.2,414.2,215.3,414.9,213z M124.5,212.7c-0.3,0-0.3,0.4-0.3,0.8c-2.5,18.3-5.8,35.8-9.3,53.1
			h11.1c2.7-18.5,5.7-36.5,9.6-53.8H124.5z M222.3,211.7c-8,0.6-14.8,2.9-19.7,8c-5.9,6.2-10.7,20-9.3,32.6
			c2,17.9,24.3,17.3,42.2,12.9c0.3-3.1,1.1-5.8,1.6-8.8c-7.4,2.8-20.1,6.6-27.7,1.8c-5.7-3.6-5.7-12.8-3.9-20.7
			c12-0.4,24.5-0.3,36.5,0c0.8-5.6,2.9-11.8,1-17.3C240.5,212.9,231.5,210.9,222.3,211.7z M233,231.3h-26.1
			c0.8-6,6.2-12.6,14.8-12.9C229.6,218.1,235.3,221.3,233,231.3z M180.2,212.7c-9.4-3.5-20.9,0.7-25.9,4.7c0,0.2-0.1,0.2-0.3,0.2
			c0.1-0.1,0.2-0.1,0.3-0.2c0,0,0,0,0,0c0.1-1.7,0.7-2.9,0.8-4.7h-9.6c-4,26.6-8.7,52.4-13.7,77.9h11.1c1.6-10,2.7-20.4,4.9-29.8
			c2.5,9.8,19.1,7.9,26.1,4.1C188.4,257.2,199.5,220,180.2,212.7z M171.4,256.4c-6,6.3-20.6,6.2-21.7-4.4c-0.5-4.6,1.2-9.5,2.1-14.2
			c0.9-4.8,1.5-9.5,2.3-13.7c5.9-7.2,23.1-8,24.8,3.9C180.4,238.3,176.3,251.2,171.4,256.4z M456.3,189.4c-1,8.4-2.2,16.4-3.9,24.1
			c-27.3-8.6-44,11.4-43.7,36.2c0.1,4.8,0.9,9.6,3.9,12.9c5.2,5.8,20,7.2,27.4,2.3c1.4-1,2.9-2.7,3.9-3.9c0.7-0.9,1.9-3.3,2.1-2.6
			c-0.4,2.6-1,5.1-1,8h10.1c1.9-27.9,8-51.7,12.4-77.1H456.3z M431.5,260.6c-7.5,0.2-11.2-4.5-11.4-12.2
			c-0.3-13.5,5.6-28.4,17.6-29.8c5.6-0.6,9.6,0.7,13.7,2.1C447.7,235.8,449,260.2,431.5,260.6z M335.5,212.7
			c-0.5,3.1-1.4,5.9-2.1,8.8c6.6-1.6,27-6.7,29,2.1c0.7,2.9-0.5,6-1.3,8.3c-18.5-1.8-33.6,1.3-37.5,14.5c-2.7,8.8,0.3,17.5,6,19.9
			c10.9,4.7,24.1-0.7,28.7-8c-0.5,2.5-0.9,5.1-0.8,8.3h9.6c0.1-9.2,1.4-16.6,2.8-24.8c1.2-7,3.5-14,3.1-20.2
			C372.2,207.3,348.6,212.3,335.5,212.7z M353.6,256.2c-5.7,5.6-21.8,7.2-20.2-6.2c1.4-11.1,13.5-13.5,26.7-11.9
			C359.1,244.2,358,251.9,353.6,256.2z"/>
	</g>
</g>
<g id="gUIDES">
</g>
</svg>
