<?xml version="1.0" encoding="utf-8"?>
<!-- Generator: Adobe Illustrator 18.0.0, SVG Export Plug-In . SVG Version: 6.00 Build 0)  -->
<!DOCTYPE svg PUBLIC "-//W3C//DTD SVG 1.1//EN" "http://www.w3.org/Graphics/SVG/1.1/DTD/svg11.dtd">
<svg version="1.1" id="Layer_1" xmlns="http://www.w3.org/2000/svg" xmlns:xlink="http://www.w3.org/1999/xlink" x="0px" y="0px"
	 viewBox="-253.5 -253.5 512 512" enable-background="new -253.5 -253.5 512 512" xml:space="preserve">
<path fill="#676767" d="M-152,62.5c0,8.9,2.9,16.2,8.5,21.9c5.7,5.7,12.3,8.7,19.7,9.1c7.5,0.3,14.7-2.6,21.8-9.1L2.5-15.9L107,84.4
	c7.1,6.4,14.4,9.4,21.8,9.1c7.5-0.4,14-3.4,19.7-9.1c5.7-5.7,8.5-13,8.5-21.9s-2.9-16.2-8.5-21.9c-2.9-2.9-10.8-10.7-24-23.5
	S97.4-9.2,82.4-23.4C64.7-40.5,45.2-59,23.8-78.8c-6.4-6.4-13.5-9.6-21.3-9.6c-7.8,0-14.9,3.2-21.3,9.6
	c-21.3,19.9-40.8,38.4-58.6,55.4c-14.9,14.3-29,27.7-42.1,40.5c-13.1,12.8-21.1,20.6-24,23.5C-149.2,46.3-152,53.6-152,62.5z"/>
</svg>
