<?xml version="1.0" encoding="utf-8"?>
<!-- Generator: Adobe Illustrator 18.0.0, SVG Export Plug-In . SVG Version: 6.00 Build 0)  -->
<!DOCTYPE svg PUBLIC "-//W3C//DTD SVG 1.1//EN" "http://www.w3.org/Graphics/SVG/1.1/DTD/svg11.dtd">
<svg version="1.1" id="Layer_1" xmlns="http://www.w3.org/2000/svg" xmlns:xlink="http://www.w3.org/1999/xlink" x="0px" y="0px"
	 viewBox="-253.5 -253.5 512 512" enable-background="new -253.5 -253.5 512 512" xml:space="preserve">
<path fill="#676767" d="M157-57.5c0-8.9-2.9-16.2-8.5-21.9c-5.7-5.7-12.3-8.7-19.7-9.1c-7.5-0.3-14.7,2.6-21.8,9.1L2.5,20.9
	L-102-79.4c-7.1-6.4-14.4-9.4-21.8-9.1c-7.5,0.4-14,3.4-19.7,9.1c-5.7,5.7-8.5,13-8.5,21.9s2.9,16.2,8.5,21.9
	c2.9,2.9,10.8,10.7,24,23.5s27.2,26.3,42.1,40.5c17.8,17,37.3,35.6,58.6,55.4c6.4,6.4,13.5,9.6,21.3,9.6c7.8,0,14.9-3.2,21.3-9.6
	c21.3-19.9,40.8-38.4,58.6-55.4c14.9-14.3,29-27.7,42.1-40.5c13.1-12.8,21.1-20.6,24-23.5C154.2-41.3,157-48.6,157-57.5z"/>
</svg>
