<?xml version="1.0" encoding="utf-8"?>
<!-- Generator: Adobe Illustrator 16.0.3, SVG Export Plug-In . SVG Version: 6.00 Build 0)  -->
<!DOCTYPE svg PUBLIC "-//W3C//DTD SVG 1.1//EN" "http://www.w3.org/Graphics/SVG/1.1/DTD/svg11.dtd">
<svg version="1.1" id="_xD83D__xDC64_" xmlns="http://www.w3.org/2000/svg" xmlns:xlink="http://www.w3.org/1999/xlink" x="0px"
	 y="0px" width="31px" height="31px" viewBox="0 0 31 31" enable-background="new 0 0 31 31" xml:space="preserve">
<path fill="#CCCCCC" d="M11.409,26.466"/>
<g id="_xD83D__xDC64__1_">
	<path fill-rule="evenodd" clip-rule="evenodd" fill="#E9B425" d="M20.604,19.684c-2.342-0.867-3.109-1.584-3.109-3.09
		c0-0.942,0.729-0.642,1.037-2.299c0.115-0.717,0.768-0.038,0.883-1.621c0-0.641-0.346-0.791-0.346-0.791s0.191-0.942,0.23-1.658
		c0.115-0.904-0.5-3.203-3.8-3.203c-3.262,0-3.876,2.299-3.799,3.203c0.077,0.716,0.229,1.658,0.229,1.658s-0.345,0.15-0.345,0.791
		c0.115,1.583,0.768,0.904,0.882,1.621c0.346,1.657,1.037,1.356,1.037,2.299c0,1.506-0.729,2.223-3.109,3.09
		c-2.379,0.828-3.914,1.695-3.914,2.299c0,0.602,0,1.996,0,1.996h18.037c0,0,0-1.395,0-1.996
		C24.519,21.379,22.983,20.512,20.604,19.684z"/>
</g>
</svg>
