<?xml version="1.0" encoding="utf-8"?>
<!-- Generator: Adobe Illustrator 16.0.3, SVG Export Plug-In . SVG Version: 6.00 Build 0)  -->
<!DOCTYPE svg PUBLIC "-//W3C//DTD SVG 1.1//EN" "http://www.w3.org/Graphics/SVG/1.1/DTD/svg11.dtd">
<svg version="1.1" id="Layer_1" xmlns="http://www.w3.org/2000/svg" xmlns:xlink="http://www.w3.org/1999/xlink" x="0px" y="0px"
	 width="512px" height="512px" viewBox="0 0 512 512" enable-background="new 0 0 512 512" xml:space="preserve">
<g>
	<path id="coin-2-icon" fill="#14A94C" d="M256,90c91.74,0,166,74.243,166,166c0,91.742-74.243,166-166,166
		c-91.739,0-166-74.243-166-166C90,164.259,164.244,90,256,90 M256,50C142.229,50,50,142.229,50,256c0,113.771,92.229,206,206,206
		c113.771,0,206-92.229,206-206C462,142.229,369.771,50,256,50L256,50z"/>
	<path fill="#075B1E" d="M274.091,347.732v22.816h-32.646v-20.408c-15.669-1.341-36.358-7.021-51.604-15.418l10.802-37.623
		c17.264,6.733,42.45,15.2,61.075,11.135c16.292-3.553,20.397-18.18,1.224-26.443c-16.194-7.271-71.928-14.875-71.928-61.486
		c0-19.31,14.474-45.849,50.432-53.698v-23.156h32.646v21.25c13.99,0.961,28.261,3.545,44.74,8.698
		c-1.648,7.201-8.771,38.449-8.771,38.449c-11.38-3.873-29.98-10.644-47.84-9.64c-22.065,1.24-23.646,17.354-8.771,24.794
		c30.515,13.799,74.709,25.534,74.709,66.689C328.201,325.496,303.424,343.607,274.091,347.732z"/>
</g>
</svg>
