<?xml version="1.0" encoding="utf-8"?>
<!-- Generator: Adobe Illustrator 16.0.3, SVG Export Plug-In . SVG Version: 6.00 Build 0)  -->
<!DOCTYPE svg PUBLIC "-//W3C//DTD SVG 1.1//EN" "http://www.w3.org/Graphics/SVG/1.1/DTD/svg11.dtd">
<svg version="1.1" id="Layer_1" xmlns="http://www.w3.org/2000/svg" xmlns:xlink="http://www.w3.org/1999/xlink" x="0px" y="0px"
	 width="512px" height="512px" viewBox="0 0 512 512" enable-background="new 0 0 512 512" xml:space="preserve">
<g>
	<path fill="#1D77D4" d="M329.629,51.085H96.543c-14.061,0-25.5,11.439-25.5,25.5v359c0,14.061,11.439,25.5,25.5,25.5h166.184v-27
		H98.043v-356h217.684v74h69h8.316v121.5h27V130.474L329.629,51.085z"/>
	<g>
		<path fill="#10569F" d="M456.209,371.114l-12.851-3.143l-2.773-0.68l-0.802-2.769c-1.425-5.077-3.396-9.91-5.874-14.463
			l-1.501-2.708l1.78-2.532l6.224-8.751c2.1-2.968,1.773-6.97-0.802-9.533l-8.737-8.749c-1.411-1.376-3.246-2.135-5.229-2.135
			c-1.355,0-2.67,0.377-3.887,1.091l-9.793,5.939l-2.473,1.487l-2.513-1.427c-4.828-2.722-10.052-4.878-15.44-6.424l-3.016-0.837
			l-0.543-3.081l-2.139-12.69c-0.602-3.568-3.701-6.172-7.306-6.172h-12.343c-3.434,0-6.41,2.318-7.218,5.646l-3.396,14.008
			l-0.697,2.73l-2.667,0.852c-4.894,1.493-9.62,3.544-14.126,6.101l-2.53,1.473l-2.481-1.531l-13.979-8.527
			c-1.168-0.693-2.494-1.074-3.857-1.074c-1.969,0-3.841,0.763-5.247,2.169l-8.708,8.715c-2.531,2.547-2.854,6.644-0.798,9.556
			l9.441,13.279l1.721,2.437l-1.344,2.678c-1.868,3.706-3.448,7.724-4.664,11.996l-0.81,2.745l-2.795,0.662l-14.948,3.629
			c-3.334,0.824-5.66,3.803-5.66,7.242v12.313c0,3.638,2.605,6.72,6.159,7.311l14.349,2.452l3.006,0.515l0.889,2.92
			c1.375,4.539,3.196,8.88,5.394,12.931l1.376,2.496l-1.5,2.465l-8.925,14.614c-1.762,2.909-1.329,6.667,1.099,9.098l8.697,8.726
			c1.4,1.385,3.269,2.179,5.258,2.179c1.523,0,3.036-0.491,4.297-1.354l13.21-9.394l2.474-1.752l2.689,1.414
			c3.861,2.049,7.946,3.755,12.195,5.029l2.723,0.813l0.644,2.74l3.54,14.512c0.781,3.312,3.758,5.643,7.216,5.643h12.295
			c3.628,0,6.709-2.598,7.329-6.14l2.227-13.189l0.516-3.088l3.02-0.845c4.777-1.311,9.217-3.076,13.233-5.179l2.699-1.389
			l2.484,1.733l9.349,6.619c1.268,0.927,2.74,1.374,4.305,1.374c1.971,0,3.833-0.776,5.24-2.153l8.711-8.717
			c2.418-2.457,2.858-6.19,1.066-9.121l-5.95-9.723l-1.527-2.529l1.507-2.571c2.922-4.897,5.207-10.138,6.82-15.603l0.896-2.91
			l3.026-0.529l12.259-2.104c3.561-0.6,6.156-3.67,6.156-7.294v-12.313C461.879,374.884,459.557,371.921,456.209,371.114z
			 M372.36,425.731c-23.295,0-42.194-18.882-42.194-42.176c0-23.3,18.899-42.212,42.194-42.212
			c23.306,0,42.188,18.912,42.188,42.212C414.549,406.85,395.666,425.731,372.36,425.731z"/>
	</g>
	<g>
		<g id="Rectangle_53_copy_3">
			<g>
				<path fill-rule="evenodd" clip-rule="evenodd" fill="#10569F" d="M248.809,140.192h-108.24v25.976h108.24V140.192z
					 M140.568,209.46v25.979h173.186V209.46H140.568z M140.568,304.707h127.416v-25.975H140.568V304.707z M140.568,373.979h84.121
					v-25.975h-84.121V373.979z"/>
			</g>
		</g>
	</g>
</g>
</svg>
