<?xml version="1.0" encoding="utf-8"?>
<!-- Generator: Adobe Illustrator 16.0.3, SVG Export Plug-In . SVG Version: 6.00 Build 0)  -->
<!DOCTYPE svg PUBLIC "-//W3C//DTD SVG 1.1//EN" "http://www.w3.org/Graphics/SVG/1.1/DTD/svg11.dtd">
<svg version="1.1" id="Layer_1" xmlns="http://www.w3.org/2000/svg" xmlns:xlink="http://www.w3.org/1999/xlink" x="0px" y="0px"
	 width="512px" height="512px" viewBox="0 0 512 512" enable-background="new 0 0 512 512" xml:space="preserve">
<g>
	<path fill-rule="evenodd" clip-rule="evenodd" fill="#D24B26" d="M362.814,256.423c-10.855,0-20.824,3.778-28.681,10.079
		c-7.858-6.301-17.827-10.079-28.684-10.079c-25.344,0-45.89,20.546-45.89,45.892c0,25.344,20.546,45.891,45.89,45.891
		c10.856,0,20.825-3.777,28.684-10.079c7.856,6.302,17.825,10.079,28.681,10.079c25.346,0,45.892-20.547,45.892-45.891
		C408.706,276.969,388.16,256.423,362.814,256.423z"/>
	<g>
		<g>
			<path fill="#671506" d="M110,291c-49.706,0-90,40.294-90,89.999C20,430.706,60.294,471,110,471c49.705,0,90-40.294,90-90.001
				C200,331.294,159.705,291,110,291z M46.039,394v-25h127v25H46.039z"/>
		</g>
	</g>
	<path fill="#A52E17" d="M435.716,114H78.504c-15.163,0-28.465,13.103-28.465,28.041V271h27v-40.005h358V372h-205v27h205.677
		c15.007,0,26.323-11.382,26.323-26.475V142.041C462.039,126.317,450.477,114,435.716,114z M77.039,171.995v-29.727
		c0.233-0.491,1.072-1.194,1.465-1.269h356.351c0.096,0.248,0.185,0.6,0.185,1.041v29.955H77.039z"/>
</g>
</svg>
