<?xml version="1.0" encoding="utf-8"?>
<!-- Generator: Adobe Illustrator 16.0.3, SVG Export Plug-In . SVG Version: 6.00 Build 0)  -->
<!DOCTYPE svg PUBLIC "-//W3C//DTD SVG 1.1//EN" "http://www.w3.org/Graphics/SVG/1.1/DTD/svg11.dtd">
<svg version="1.1" id="Layer_1" xmlns="http://www.w3.org/2000/svg" xmlns:xlink="http://www.w3.org/1999/xlink" x="0px" y="0px"
	 width="512px" height="512px" viewBox="0 0 512 512" enable-background="new 0 0 512 512" xml:space="preserve">
<g>
	<path fill="#14A94C" d="M430.301,114H78.089c-15.39,0-26.994,12.485-26.994,29.041v227.484c0,16.499,11.353,28.475,26.994,28.475
		h203.006v-30h-200V174.171l156.243,110.827c4.993,4.51,11.338,6.755,17.743,6.755c6.701-0.001,13.467-2.461,18.807-7.359
		l157.207-114.009V276h30V143.041C461.095,127.571,446.705,114,430.301,114z M256.444,263.691l-0.756,0.756
		c-0.17,0.17-0.334,0.263-0.455,0.311l-0.581-0.581L85.228,144h336.258L256.444,263.691z"/>
	<path fill="#075B1E" d="M401.095,291c-49.706,0-90,40.294-90,89.999c0,49.707,40.294,90.001,90,90.001
		c49.705,0,90-40.294,90-90.001C491.095,331.294,450.8,291,401.095,291z M392.095,322h18v54h-18V322z M442.813,423.18
		c-11.143,11.143-25.96,17.28-41.719,17.28c-15.76,0-30.576-6.138-41.721-17.281c-11.143-11.145-17.28-25.96-17.279-41.719
		c0-15.76,6.137-30.575,17.28-41.719l12.729,12.729c-7.744,7.743-12.009,18.039-12.009,28.99s4.264,21.247,12.008,28.99
		c7.744,7.745,18.04,12.01,28.992,12.01c10.951,0,21.247-4.265,28.99-12.009c7.745-7.744,12.01-18.04,12.01-28.991
		c0-10.952-4.265-21.248-12.01-28.992l12.729-12.729c11.144,11.145,17.281,25.961,17.281,41.721S453.957,412.036,442.813,423.18z"/>
</g>
</svg>
